<svg xmlns="http://www.w3.org/2000/svg" width="117" height="93" viewBox="0 0 117 93">
    <g fill="none" fill-rule="evenodd" stroke="#1A8BB0" stroke-linecap="square" stroke-width="2">
        <path stroke-dasharray="2,5" d="M52.189 1.208H13.966v33.588M67.616 85.907h40.6V40.28"/>
        <path d="M60.9 31.667H116V2.46H60.9z"/>
        <path d="M113.1 22.659c-2.388.473-4.273 2.306-4.76 4.627H71.462c-.486-2.32-2.372-4.153-4.76-4.627l-.002-9.73c2.39-.475 4.274-2.307 4.761-4.627h36.878c.487 2.32 2.373 4.152 4.761 4.626v9.73zM76.85 17.063h.015M101.516 17.063h-.016"/>
        <path d="M95.7 17.063c0 3.227-2.597 5.842-5.8 5.842s-5.8-2.615-5.8-5.842c0-3.226 2.597-5.84 5.8-5.84s5.8 2.614 5.8 5.84zM1.45 91.753c0-14.246 11.483-25.767 25.566-25.767 14.08 0 25.565 11.574 25.565 25.767M14.232 52.957c0-7.122 5.716-12.885 12.784-12.885 7.066 0 12.781 5.763 12.781 12.885S34.082 65.84 27.016 65.84c-7.068 0-12.784-5.761-12.784-12.883z"/>
    </g>
</svg>
