<svg xmlns="http://www.w3.org/2000/svg" width="100" height="89" viewBox="0 0 100 89">
    <g fill="none" fill-rule="evenodd">
        <path stroke="#1A8BB0" stroke-linecap="square" stroke-width="2" d="M82.025 62.819l-13.33-9.15-10.4-.607c-3.648 0-7.39-3.813-7.557-7.695l-.051-1.12-9.325.032-4.266 5.864a4.335 4.335 0 0 1-2.87 1.718 4.104 4.104 0 0 1-3.092-.748 4.093 4.093 0 0 1-1.626-2.704 4.323 4.323 0 0 1 .813-3.252l3.677-5.108c1.78-2.628 5.53-2.832 6.636-2.832h28.367L85.92 59.323l-3.895 3.496z"/>
        <path stroke="#1A8BB0" stroke-linecap="square" stroke-width="2" d="M80.28 61.579a4.876 4.876 0 0 1 1.1 6.863 4.86 4.86 0 0 1-6.733 1.08L70.99 66.92l-2.711-1.936-3.246-2.302 6.312 4.454.938.67a5.417 5.417 0 0 1 1.226 7.592 6.115 6.115 0 0 1-8.486 1.39l-1.26-.893-5.284-3.788 5.763 4.13a3.931 3.931 0 0 1 .902 5.488l-.314.436a3.917 3.917 0 0 1-5.463.902c-2.708-1.806-8.647-5.485-8.647-5.485M16.38 61.99l-3.002-2.282 16.343-21.403 4.22 1.934"/>
        <path stroke="#1A8BB0" stroke-linecap="square" stroke-width="2" d="M53.008 85.125a4.59 4.59 0 0 1-3.029 1.96 4.668 4.668 0 0 1-3.624-.905l-.861-.653 4.332-6.215c.384-.545.663-1.133.894-1.735l2.008 1.513c1.352 1.728 1.538 4.199.28 6.035zM39.584 85.1c-1.937-1.508-2.335-4.425-.937-6.57l4.39-6.317c.873-1.13 2.177-1.814 3.553-1.814.938 0 1.83.307 2.576.887 1.98 1.547 2.377 4.549.88 6.7l-4.164 6.011c-1.427 2.06-4.38 2.596-6.298 1.102zM30.085 82.725c-.962-.74-1.585-1.852-1.758-3.126a5.099 5.099 0 0 1 .866-3.607l5.705-8.161 1.283-1.833c.003-.003.003-.006.008-.01l3.025-4.33c.88-1.257 2.284-2.004 3.76-2.004a4.23 4.23 0 0 1 2.616.895c.961.744 1.582 1.852 1.755 3.122a5.117 5.117 0 0 1-.868 3.611l-3.51 5.017c-.056.075-.127.132-.182.21l-4.214 6.05c-.03.042-.049.094-.078.139l-2.039 2.918c-1.448 2.071-4.446 2.604-6.37 1.109z"/>
        <path stroke="#1A8BB0" stroke-linecap="square" stroke-width="2" d="M23.485 76.022c-1.987-1.469-2.38-4.335-.882-6.386l.954-1.3c.057-.072.132-.125.185-.2l2.14-2.97 3.214-4.383a4.654 4.654 0 0 1 3.731-1.9 4.34 4.34 0 0 1 2.6.85c1.983 1.465 2.382 4.32.894 6.372l-1.651 2.251-4.852 6.61c-1.446 1.964-4.422 2.468-6.333 1.056z"/>
        <path stroke="#1A8BB0" stroke-linecap="square" stroke-width="2" d="M16.304 70.309c-.99-.744-1.64-1.853-1.83-3.122a5.078 5.078 0 0 1 .912-3.74l2.402-3.388c.927-1.282 2.4-2.046 3.945-2.046 1 0 1.948.317 2.744.91.99.743 1.64 1.855 1.83 3.128a5.088 5.088 0 0 1-.913 3.737l-.205.29-2.404 3.333c-1.583 1.897-4.533 2.362-6.481.898zM11.13 62.23l-9.696-7.436L22.146 27.43l9.691 7.434zM77.152 27.43l20.711 27.364-9.694 7.436L67.46 34.864z"/>
        <path d="M21.387 1.86H78.12V26.9H21.387z"/>
        <path stroke="#1A8BB0" stroke-linecap="square" stroke-width="2" d="M21.387 26.9V12.54l9.956-10.68H78.12V26.9"/>
        <path d="M21.387 26.899H78.12V1.859H21.387z"/>
        <path stroke="#1A8BB0" stroke-width="2" d="M21.269 12.6h10.134V1.9"/>
    </g>
</svg>
