<svg xmlns="http://www.w3.org/2000/svg" width="116" height="36" viewBox="0 0 116 36">
    <g fill="none" fill-rule="evenodd">
        <path d="M0 0h116v36H0z"/>
        <path fill="#1A8BB0" fill-rule="nonzero" d="M6.71 24.97h4.2c.68 0 1.34-.11 1.98-.33.64-.22 1.21-.585 1.71-1.095s.9-1.175 1.2-1.995c.3-.82.45-1.82.45-3 0-1.08-.105-2.055-.315-2.925-.21-.87-.555-1.615-1.035-2.235-.48-.62-1.115-1.095-1.905-1.425-.79-.33-1.765-.495-2.925-.495H6.71v13.5zM2 7.51h9.24c1.38 0 2.665.22 3.855.66 1.19.44 2.22 1.1 3.09 1.98.87.88 1.55 1.98 2.04 3.3.49 1.32.735 2.87.735 4.65 0 1.56-.2 3-.6 4.32-.4 1.32-1.005 2.46-1.815 3.42s-1.82 1.715-3.03 2.265c-1.21.55-2.635.825-4.275.825H2V7.51zm22.23 0h4.71v21.42h-4.71V7.51zm14.25 13.14h5.55l-2.7-7.86h-.06l-2.79 7.86zm.45-13.14h4.83l8.01 21.42h-4.89l-1.62-4.77h-8.01l-1.68 4.77h-4.74l8.1-21.42zm19.41 8.67h4.77c.84 0 1.53-.2 2.07-.6.54-.4.81-1.05.81-1.95 0-.5-.09-.91-.27-1.23-.18-.32-.42-.57-.72-.75-.3-.18-.645-.305-1.035-.375a6.867 6.867 0 0 0-1.215-.105h-4.41v5.01zm-4.71-8.67h10.08c1.02 0 1.95.09 2.79.27.84.18 1.56.475 2.16.885.6.41 1.065.955 1.395 1.635.33.68.495 1.52.495 2.52 0 1.08-.245 1.98-.735 2.7-.49.72-1.215 1.31-2.175 1.77 1.32.38 2.305 1.045 2.955 1.995.65.95.975 2.095.975 3.435 0 1.08-.21 2.015-.63 2.805a5.466 5.466 0 0 1-1.695 1.935 7.5 7.5 0 0 1-2.43 1.11c-.91.24-1.845.36-2.805.36H53.63V7.51zm4.71 17.76h5.04c.46 0 .9-.045 1.32-.135.42-.09.79-.24 1.11-.45.32-.21.575-.495.765-.855.19-.36.285-.82.285-1.38 0-1.1-.31-1.885-.93-2.355-.62-.47-1.44-.705-2.46-.705h-5.13v5.88zm20.19-6.96c0 .9.105 1.775.315 2.625.21.85.545 1.615 1.005 2.295a5.15 5.15 0 0 0 1.8 1.635c.74.41 1.64.615 2.7.615 1.06 0 1.96-.205 2.7-.615a5.15 5.15 0 0 0 1.8-1.635c.46-.68.795-1.445 1.005-2.295.21-.85.315-1.725.315-2.625 0-.94-.105-1.85-.315-2.73a7.23 7.23 0 0 0-1.005-2.355 5.098 5.098 0 0 0-1.8-1.65c-.74-.41-1.64-.615-2.7-.615-1.06 0-1.96.205-2.7.615-.74.41-1.34.96-1.8 1.65a7.23 7.23 0 0 0-1.005 2.355c-.21.88-.315 1.79-.315 2.73zm-4.71 0c0-1.6.24-3.085.72-4.455s1.17-2.565 2.07-3.585c.9-1.02 2.005-1.82 3.315-2.4C81.235 7.29 82.71 7 84.35 7c1.66 0 3.14.29 4.44.87 1.3.58 2.4 1.38 3.3 2.4.9 1.02 1.59 2.215 2.07 3.585.48 1.37.72 2.855.72 4.455 0 1.56-.24 3.015-.72 4.365S92.99 25.2 92.09 26.2c-.9 1-2 1.785-3.3 2.355-1.3.57-2.78.855-4.44.855-1.64 0-3.115-.285-4.425-.855-1.31-.57-2.415-1.355-3.315-2.355-.9-1-1.59-2.175-2.07-3.525-.48-1.35-.72-2.805-.72-4.365zm27.48 3.51c0 .72.13 1.33.39 1.83s.605.905 1.035 1.215c.43.31.935.54 1.515.69.58.15 1.18.225 1.8.225.42 0 .87-.035 1.35-.105.48-.07.93-.205 1.35-.405.42-.2.77-.475 1.05-.825s.42-.795.42-1.335c0-.58-.185-1.05-.555-1.41-.37-.36-.855-.66-1.455-.9-.6-.24-1.28-.45-2.04-.63s-1.53-.38-2.31-.6c-.8-.2-1.58-.445-2.34-.735a8.04 8.04 0 0 1-2.04-1.125 5.298 5.298 0 0 1-1.455-1.725c-.37-.69-.555-1.525-.555-2.505 0-1.1.235-2.055.705-2.865a6.388 6.388 0 0 1 1.845-2.025 8.04 8.04 0 0 1 2.58-1.2c.96-.26 1.92-.39 2.88-.39 1.12 0 2.195.125 3.225.375 1.03.25 1.945.655 2.745 1.215s1.435 1.275 1.905 2.145c.47.87.705 1.925.705 3.165h-4.56c-.04-.64-.175-1.17-.405-1.59a2.65 2.65 0 0 0-.915-.99c-.38-.24-.815-.41-1.305-.51-.49-.1-1.025-.15-1.605-.15-.38 0-.76.04-1.14.12-.38.08-.725.22-1.035.42-.31.2-.565.45-.765.75-.2.3-.3.68-.3 1.14 0 .42.08.76.24 1.02.16.26.475.5.945.72.47.22 1.12.44 1.95.66.83.22 1.915.5 3.255.84.4.08.955.225 1.665.435.71.21 1.415.545 2.115 1.005.7.46 1.305 1.075 1.815 1.845s.765 1.755.765 2.955c0 .98-.19 1.89-.57 2.73a5.93 5.93 0 0 1-1.695 2.175c-.75.61-1.68 1.085-2.79 1.425-1.11.34-2.395.51-3.855.51-1.18 0-2.325-.145-3.435-.435-1.11-.29-2.09-.745-2.94-1.365a6.743 6.743 0 0 1-2.025-2.37c-.5-.96-.74-2.1-.72-3.42h4.56z"/>
    </g>
</svg>
