<svg xmlns="http://www.w3.org/2000/svg" width="24" height="24" viewBox="0 0 24 24">
    <g fill="#8C9BA5" fill-rule="nonzero">
        <path d="M12.5 6C8.317 6 4.563 8.515 2 12.5 4.562 16.485 8.316 19 12.5 19c4.185 0 7.94-2.515 10.5-6.5C20.44 8.515 16.685 6 12.5 6zm0 10.562c-2.22 0-4.025-1.822-4.025-4.062s1.806-4.062 4.026-4.062c2.218 0 4.025 1.822 4.025 4.062s-1.807 4.062-4.025 4.062z"/>
        <path d="M12.5 10a2.503 2.503 0 0 0-2.5 2.5c0 1.378 1.121 2.5 2.5 2.5 1.378 0 2.5-1.122 2.5-2.5S13.878 10 12.5 10z"/>
    </g>
</svg>
