<svg xmlns="http://www.w3.org/2000/svg" width="92" height="89" viewBox="0 0 92 89">
    <g fill="none" fill-rule="evenodd">
        <path stroke="#1A8BB0" stroke-linecap="square" stroke-width="2" d="M27.73 59.965l-5.578-5.604c-.531-.536-1.329-.536-1.86 0l-5.575 5.604"/>
        <path stroke="#1A8BB0" stroke-linecap="round" stroke-width="2" d="M39.596 46.943h12.748V87.52c-17.129-.667-30.807-14.812-31.074-32.023"/>
        <path stroke="#1A8BB0" stroke-linecap="square" stroke-width="2" d="M52.344 21.86v25.084M89.972 59.965l-5.575-5.604c-.531-.536-1.329-.536-1.86 0l-5.577 5.604"/>
        <path stroke="#1A8BB0" stroke-linecap="round" stroke-width="2" d="M83.419 55.495c-.267 17.213-13.944 31.358-31.075 32.025V46.943h12.748"/>
        <path stroke="#1A8BB0" stroke-linecap="square" stroke-width="2" d="M52.344 46.943V21.86M44.009 12.52c0-4.598 3.759-8.375 8.336-8.375 4.575 0 8.334 3.777 8.334 8.375s-3.759 8.376-8.334 8.376c-4.577 0-8.336-3.613-8.336-8.376z"/>
        <path d="M1 20.098c0 10.547 8.559 19.097 19.119 19.097 10.559 0 19.119-8.55 19.119-19.097S30.678 1 20.118 1 1 9.551 1 20.098z"/>
        <path d="M1.594 17.78c-.096.76-.145 1.54-.145 2.318 0 10.281 8.375 18.647 18.668 18.647 10.296 0 18.67-8.366 18.67-18.647 0-7.657-4.594-14.45-11.704-17.308a18.612 18.612 0 0 0-6.964-1.34c-9.408 0-17.372 7.02-18.525 16.33zm17.767 2.315V6.866L30.94 20.852H20.119a.757.757 0 0 1-.758-.757z"/>
        <path stroke="#1A8BB0" stroke-linecap="round" stroke-width="2" d="M19.361 6.866v13.23c0 .418.34.756.758.756H30.94M20.117 38.745C9.824 38.745 1.45 30.38 1.45 20.098c0-.777.048-1.557.144-2.318C2.746 8.47 10.71 1.45 20.119 1.45c2.408 0 4.752.451 6.964 1.34 7.11 2.857 11.704 9.651 11.704 17.308 0 10.282-8.375 18.647-18.67 18.647"/>
    </g>
</svg>
