<svg xmlns="http://www.w3.org/2000/svg" width="74" height="89" viewBox="0 0 74 89">
    <g fill="none" fill-rule="evenodd" stroke="#1A8BB0" stroke-linecap="square" stroke-width="2">
        <path d="M5.056 87.576h62.958V2.67H5.056zM68.014 17.256h4.483V8.329h-4.483zM29.886 61.494h20.84M36.815 66.101h.01M40.247 66.101h.01M43.688 66.101h-.01M1.233 14.124h7.192M1.233 29.627h7.192M1.233 45.13h7.192M1.233 60.632h7.192M1.233 76.135h7.192M13.713 1.936v85.64"/>
        <path d="M30.032 47.965c0-5.61 4.524-10.148 10.071-10.148s10.07 4.559 10.07 10.148m-15.105-15.28c0-2.804 2.251-5.074 5.035-5.074 2.783 0 5.035 2.27 5.035 5.075s-2.252 5.074-5.035 5.074c-2.784 0-5.035-2.27-5.035-5.074z"/>
    </g>
</svg>
